<svg xmlns="http://www.w3.org/2000/svg" viewBox="0 0 900 186" width="900" height="186" role="img" aria-label="recent commits">
<defs>
  <radialGradient id="lgDeep" cx="16%" cy="50%" r="88%">
    <stop offset="0%" stop-color="#07202b" stop-opacity="0.62"/>
    <stop offset="46%" stop-color="#040f18" stop-opacity="0.48"/>
    <stop offset="100%" stop-color="#01050a" stop-opacity="0.34"/>
  </radialGradient>
  <radialGradient id="lgVig" cx="50%" cy="50%" r="74%">
    <stop offset="58%" stop-color="#000000" stop-opacity="0"/>
    <stop offset="100%" stop-color="#000000" stop-opacity="0.6"/>
  </radialGradient>
  <radialGradient id="lgCore" cx="50%" cy="42%" r="58%"><stop offset="0%" stop-color="#ffffff" stop-opacity="1"/><stop offset="26%" stop-color="#dff8ff" stop-opacity="1"/><stop offset="60%" stop-color="#54c8e8" stop-opacity="0.62"/><stop offset="100%" stop-color="#0a4b61" stop-opacity="0"/></radialGradient>
  <linearGradient id="lgSweep" x1="0" y1="0" x2="1" y2="0">
    <stop offset="0%" stop-color="#5fd8f2" stop-opacity="0"/>
    <stop offset="52%" stop-color="#5fd8f2" stop-opacity="0.45"/>
    <stop offset="100%" stop-color="#5fd8f2" stop-opacity="0"/>
  </linearGradient>
  <filter id="lgBevel" x="-60%" y="-60%" width="220%" height="220%">
    <feGaussianBlur in="SourceAlpha" stdDeviation="1.4" result="hh"/>
    <feSpecularLighting in="hh" surfaceScale="3.6" specularConstant="0.85"
                        specularExponent="26" lighting-color="#dff6ff" result="s">
      <fePointLight x="-70" y="-70" z="60">
        <animate attributeName="x" values="-70;70;-70" dur="9s" repeatCount="indefinite"/>
        <animate attributeName="y" values="-70;70;-70" dur="13s" repeatCount="indefinite"/>
      </fePointLight>
    </feSpecularLighting>
    <feComposite in="s" in2="SourceAlpha" operator="in" result="sc"/>
    <feComposite in="SourceGraphic" in2="sc" operator="arithmetic" k1="0" k2="1" k3="0.90" k4="0"/>
  </filter>
  <filter id="lgGlow" x="-200%" y="-200%" width="500%" height="500%">
    <feGaussianBlur in="SourceGraphic" stdDeviation="0.90" result="a"/>
    <feGaussianBlur in="SourceGraphic" stdDeviation="3.60" result="b"/>
    <feMerge><feMergeNode in="b"/><feMergeNode in="a"/><feMergeNode in="SourceGraphic"/></feMerge>
  </filter>
  <filter id="lgGrain" x="0%" y="0%" width="100%" height="100%">
    <feTurbulence type="fractalNoise" baseFrequency="0.8" numOctaves="3" seed="5" result="n">
      <animate attributeName="seed" values="5;13;21;5" dur="1.3s" calcMode="discrete" repeatCount="indefinite"/>
    </feTurbulence>
    <feColorMatrix in="n" type="matrix"
      values="0 0 0 0 0.12  0 0 0 0 0.66  0 0 0 0 0.8  0 0 0 0.18 0"/>
  </filter>
  <pattern id="lgScan" width="3" height="3" patternUnits="userSpaceOnUse">
    <rect width="3" height="0.8" fill="#0a3242" opacity="0.28"/>
  </pattern>
  <clipPath id="lgClip"><rect width="900" height="186" rx="3"/></clipPath>
  <style>.t{font-family:"SFMono-Regular","SF Mono",Menlo,Consolas,"DejaVu Sans Mono",monospace;}</style>
  <linearGradient id="lgBody" x1="0" y1="0" x2="0.3" y2="1">
    <stop offset="0%" stop-color="#07202b" stop-opacity="0.62"/>
    <stop offset="52%" stop-color="#040f18" stop-opacity="0.48"/>
    <stop offset="100%" stop-color="#01050a" stop-opacity="0.34"/>
  </linearGradient>
  <linearGradient id="lgBar" x1="0" y1="0" x2="0" y2="1">
    <stop offset="0%" stop-color="#5fd8f2" stop-opacity="0.16"/>
    <stop offset="100%" stop-color="#5fd8f2" stop-opacity="0"/>
  </linearGradient>
  <linearGradient id="lgLip" x1="0" y1="0" x2="1" y2="0">
    <stop offset="0%" stop-color="#ffffff" stop-opacity="0"/>
    <stop offset="18%" stop-color="#ffffff" stop-opacity="0.42"/>
    <stop offset="82%" stop-color="#ffffff" stop-opacity="0.42"/>
    <stop offset="100%" stop-color="#ffffff" stop-opacity="0"/>
  </linearGradient>
  <filter id="lgDrop" x="-12%" y="-12%" width="124%" height="130%">
    <feDropShadow dx="0" dy="2.4" stdDeviation="3.4"
                  flood-color="#000000"
                  flood-opacity="0.65"/>
  </filter>
  <clipPath id="lgInner"><rect x="7" y="28" width="886" height="151"/></clipPath>
</defs>

  <g filter="url(#lgDrop)">
    <rect x="7" y="7" width="886" height="172" rx="4" fill="url(#lgBody)"/>
  </g>
  <rect x="7" y="7" width="886" height="21" rx="4" fill="url(#lgBar)"/>
  <rect x="7" y="28" width="886" height="0.6" fill="#3f7f96" opacity="0.5"/>
  <rect x="13" y="7.5" width="874" height="0.9" fill="url(#lgLip)"/>
  <rect x="7.3" y="7.3" width="885.4" height="171.4" rx="4" fill="none"
        stroke="#5fd8f2" stroke-width="0.5" opacity="0.55"/>
  <path d="M10 16 V10 H16" stroke="#5fd8f2" stroke-width="0.45" fill="none" opacity="0.7"/><path d="M884 10 H890 V16" stroke="#5fd8f2" stroke-width="0.45" fill="none" opacity="0.7"/><path d="M10 170 V176 H16" stroke="#5fd8f2" stroke-width="0.45" fill="none" opacity="0.7"/><path d="M884 176 H890 V170" stroke="#5fd8f2" stroke-width="0.45" fill="none" opacity="0.7"/>
  <g class="t">
    <circle cx="20" cy="17.6" r="2.6" fill="none" stroke="#5fd8f2" stroke-width="0.45"/>
    <circle cx="20" cy="17.6" r="0.9" fill="#5fd8f2"/>
    <text x="29" y="20.6" fill="#5fd8f2" font-size="7.4" letter-spacing="2.8">COMMIT STREAM</text>
    <text x="885" y="20.6" fill="#3f7f96" font-size="6.8" letter-spacing="1.8"
          text-anchor="end">9 RECENT</text>
  </g>
<g clip-path="url(#lgInner)">

  <g class="t">
    <g>
      <animateTransform attributeName="transform" type="translate" values="0 0;0 -153"
                        dur="23s" calcMode="linear" repeatCount="indefinite"/>
      <text x="23" y="44" fill="#3f7f96" font-size="8.1">09:18</text><text x="69" y="44" fill="#e8b455" font-size="8.1">shuccii</text><text x="237" y="44" fill="#cfeefb" font-size="8.1">feat: break the banner into a board of instruments</text><rect x="17" y="36" width="2" height="10" fill="#5fd8f2" opacity="0.9"/><text x="23" y="61" fill="#3f7f96" font-size="8.1">20:54</text><text x="69" y="61" fill="#e8b455" font-size="8.1">shuccii</text><text x="237" y="61" fill="#cfeefb" font-size="8.1">chore: refresh telemetry panels</text><rect x="17" y="53" width="2" height="10" fill="#5fd8f2" opacity="0.25"/><text x="23" y="78" fill="#3f7f96" font-size="8.1">11:21</text><text x="69" y="78" fill="#e8b455" font-size="8.1">shuccii</text><text x="237" y="78" fill="#cfeefb" font-size="8.1">chore: refresh telemetry panels</text><rect x="17" y="70" width="2" height="10" fill="#5fd8f2" opacity="0.25"/><text x="23" y="95" fill="#3f7f96" font-size="8.1">11:20</text><text x="69" y="95" fill="#e8b455" font-size="8.1">shuccii</text><text x="237" y="95" fill="#cfeefb" font-size="8.1">feat: follow the reader's system colour scheme</text><rect x="17" y="87" width="2" height="10" fill="#5fd8f2" opacity="0.25"/><text x="23" y="112" fill="#3f7f96" font-size="8.1">11:10</text><text x="69" y="112" fill="#e8b455" font-size="8.1">shuccii</text><text x="237" y="112" fill="#cfeefb" font-size="8.1">chore: refresh telemetry panels</text><rect x="17" y="104" width="2" height="10" fill="#5fd8f2" opacity="0.25"/><text x="23" y="129" fill="#3f7f96" font-size="8.1">11:09</text><text x="69" y="129" fill="#e8b455" font-size="8.1">shuccii</text><text x="237" y="129" fill="#cfeefb" font-size="8.1">feat: make the instrument the data — hairline HUD driven by live tele…</text><rect x="17" y="121" width="2" height="10" fill="#5fd8f2" opacity="0.25"/><text x="23" y="146" fill="#3f7f96" font-size="8.1">14:20</text><text x="69" y="146" fill="#e8b455" font-size="8.1">shuccii.github.io</text><text x="237" y="146" fill="#cfeefb" font-size="8.1">Fix punctuation in blog post</text><rect x="17" y="138" width="2" height="10" fill="#5fd8f2" opacity="0.25"/><text x="23" y="163" fill="#3f7f96" font-size="8.1">14:19</text><text x="69" y="163" fill="#e8b455" font-size="8.1">shuccii.github.io</text><text x="237" y="163" fill="#cfeefb" font-size="8.1">Fix mobile print background coverage</text><rect x="17" y="155" width="2" height="10" fill="#5fd8f2" opacity="0.25"/><text x="23" y="180" fill="#3f7f96" font-size="8.1">14:18</text><text x="69" y="180" fill="#e8b455" font-size="8.1">shuccii.github.io</text><text x="237" y="180" fill="#cfeefb" font-size="8.1">content: publish blog post</text><rect x="17" y="172" width="2" height="10" fill="#5fd8f2" opacity="0.25"/><text x="23" y="197" fill="#3f7f96" font-size="8.1">09:18</text><text x="69" y="197" fill="#e8b455" font-size="8.1">shuccii</text><text x="237" y="197" fill="#cfeefb" font-size="8.1">feat: break the banner into a board of instruments</text><rect x="17" y="189" width="2" height="10" fill="#5fd8f2" opacity="0.9"/><text x="23" y="214" fill="#3f7f96" font-size="8.1">20:54</text><text x="69" y="214" fill="#e8b455" font-size="8.1">shuccii</text><text x="237" y="214" fill="#cfeefb" font-size="8.1">chore: refresh telemetry panels</text><rect x="17" y="206" width="2" height="10" fill="#5fd8f2" opacity="0.25"/><text x="23" y="231" fill="#3f7f96" font-size="8.1">11:21</text><text x="69" y="231" fill="#e8b455" font-size="8.1">shuccii</text><text x="237" y="231" fill="#cfeefb" font-size="8.1">chore: refresh telemetry panels</text><rect x="17" y="223" width="2" height="10" fill="#5fd8f2" opacity="0.25"/><text x="23" y="248" fill="#3f7f96" font-size="8.1">11:20</text><text x="69" y="248" fill="#e8b455" font-size="8.1">shuccii</text><text x="237" y="248" fill="#cfeefb" font-size="8.1">feat: follow the reader's system colour scheme</text><rect x="17" y="240" width="2" height="10" fill="#5fd8f2" opacity="0.25"/><text x="23" y="265" fill="#3f7f96" font-size="8.1">11:10</text><text x="69" y="265" fill="#e8b455" font-size="8.1">shuccii</text><text x="237" y="265" fill="#cfeefb" font-size="8.1">chore: refresh telemetry panels</text><rect x="17" y="257" width="2" height="10" fill="#5fd8f2" opacity="0.25"/><text x="23" y="282" fill="#3f7f96" font-size="8.1">11:09</text><text x="69" y="282" fill="#e8b455" font-size="8.1">shuccii</text><text x="237" y="282" fill="#cfeefb" font-size="8.1">feat: make the instrument the data — hairline HUD driven by live tele…</text><rect x="17" y="274" width="2" height="10" fill="#5fd8f2" opacity="0.25"/><text x="23" y="299" fill="#3f7f96" font-size="8.1">14:20</text><text x="69" y="299" fill="#e8b455" font-size="8.1">shuccii.github.io</text><text x="237" y="299" fill="#cfeefb" font-size="8.1">Fix punctuation in blog post</text><rect x="17" y="291" width="2" height="10" fill="#5fd8f2" opacity="0.25"/><text x="23" y="316" fill="#3f7f96" font-size="8.1">14:19</text><text x="69" y="316" fill="#e8b455" font-size="8.1">shuccii.github.io</text><text x="237" y="316" fill="#cfeefb" font-size="8.1">Fix mobile print background coverage</text><rect x="17" y="308" width="2" height="10" fill="#5fd8f2" opacity="0.25"/><text x="23" y="333" fill="#3f7f96" font-size="8.1">14:18</text><text x="69" y="333" fill="#e8b455" font-size="8.1">shuccii.github.io</text><text x="237" y="333" fill="#cfeefb" font-size="8.1">content: publish blog post</text><rect x="17" y="325" width="2" height="10" fill="#5fd8f2" opacity="0.25"/>
    </g>
  </g>
  <rect x="7" y="28" width="886" height="151" fill="url(#lgScan)" opacity="0.3"/>
  <rect x="7" y="28" width="886" height="151" filter="url(#lgGrain)" opacity="0.26"/>
</g>
</svg>
