<svg xmlns="http://www.w3.org/2000/svg" viewBox="0 0 444 176" width="444" height="176" role="img" aria-label="daily contribution pulse">
<defs>
  <radialGradient id="puDeep" cx="16%" cy="50%" r="88%">
    <stop offset="0%" stop-color="#123a4e" stop-opacity="0.66"/>
    <stop offset="46%" stop-color="#0b2534" stop-opacity="0.53"/>
    <stop offset="100%" stop-color="#05141e" stop-opacity="0.4"/>
  </radialGradient>
  <radialGradient id="puVig" cx="50%" cy="50%" r="74%">
    <stop offset="58%" stop-color="#000000" stop-opacity="0"/>
    <stop offset="100%" stop-color="#000000" stop-opacity="0.6"/>
  </radialGradient>
  <radialGradient id="puCore" cx="50%" cy="42%" r="58%"><stop offset="0%" stop-color="#ffffff" stop-opacity="1"/><stop offset="26%" stop-color="#dff8ff" stop-opacity="1"/><stop offset="60%" stop-color="#54c8e8" stop-opacity="0.62"/><stop offset="100%" stop-color="#0a4b61" stop-opacity="0"/></radialGradient>
  <linearGradient id="puSweep" x1="0" y1="0" x2="1" y2="0">
    <stop offset="0%" stop-color="#6fe0f7" stop-opacity="0"/>
    <stop offset="52%" stop-color="#6fe0f7" stop-opacity="0.45"/>
    <stop offset="100%" stop-color="#6fe0f7" stop-opacity="0"/>
  </linearGradient>
  <filter id="puBevel" x="-60%" y="-60%" width="220%" height="220%">
    <feGaussianBlur in="SourceAlpha" stdDeviation="1.4" result="hh"/>
    <feSpecularLighting in="hh" surfaceScale="3.6" specularConstant="0.85"
                        specularExponent="26" lighting-color="#dff6ff" result="s">
      <fePointLight x="-70" y="-70" z="60">
        <animate attributeName="x" values="-70;70;-70" dur="9s" repeatCount="indefinite"/>
        <animate attributeName="y" values="-70;70;-70" dur="13s" repeatCount="indefinite"/>
      </fePointLight>
    </feSpecularLighting>
    <feComposite in="s" in2="SourceAlpha" operator="in" result="sc"/>
    <feComposite in="SourceGraphic" in2="sc" operator="arithmetic" k1="0" k2="1" k3="0.90" k4="0"/>
  </filter>
  <filter id="puGlow" x="-200%" y="-200%" width="500%" height="500%">
    <feGaussianBlur in="SourceGraphic" stdDeviation="0.90" result="a"/>
    <feGaussianBlur in="SourceGraphic" stdDeviation="3.60" result="b"/>
    <feMerge><feMergeNode in="b"/><feMergeNode in="a"/><feMergeNode in="SourceGraphic"/></feMerge>
  </filter>
  <filter id="puGrain" x="0%" y="0%" width="100%" height="100%">
    <feTurbulence type="fractalNoise" baseFrequency="0.8" numOctaves="3" seed="5" result="n">
      <animate attributeName="seed" values="5;13;21;5" dur="1.3s" calcMode="discrete" repeatCount="indefinite"/>
    </feTurbulence>
    <feColorMatrix in="n" type="matrix"
      values="0 0 0 0 0.12  0 0 0 0 0.66  0 0 0 0 0.8  0 0 0 0.18 0"/>
  </filter>
  <pattern id="puScan" width="3" height="3" patternUnits="userSpaceOnUse">
    <rect width="3" height="0.8" fill="#0a3242" opacity="0.28"/>
  </pattern>
  <clipPath id="puClip"><rect width="444" height="176" rx="3"/></clipPath>
  <style>.t{font-family:"SFMono-Regular","SF Mono",Menlo,Consolas,"DejaVu Sans Mono",monospace;}</style>
  <linearGradient id="puGlass" x1="0.1" y1="0" x2="0.6" y2="1">
    <stop offset="0%"   stop-color="#123a4e" stop-opacity="0.66"/>
    <stop offset="38%"  stop-color="#0b2534"   stop-opacity="0.53"/>
    <stop offset="100%" stop-color="#05141e" stop-opacity="0.4"/>
  </linearGradient>

  <!-- the rim catches light twice: once top-left, once bottom-right -->
  <linearGradient id="puRim" x1="0" y1="0" x2="1" y2="1">
    <stop offset="0%"   stop-color="#ffffff" stop-opacity="0.85"/>
    <stop offset="16%"  stop-color="#6fe0f7" stop-opacity="0.72"/>
    <stop offset="45%"  stop-color="#7fe4fa" stop-opacity="0.24"/>
    <stop offset="72%"  stop-color="#6fe0f7" stop-opacity="0.5"/>
    <stop offset="100%" stop-color="#ffffff" stop-opacity="0.55"/>
  </linearGradient>

  <!-- light bends through the thickness at the edge, so the rim band is not flat -->
  <linearGradient id="puRefract" x1="0" y1="0" x2="0" y2="1">
    <stop offset="0%"   stop-color="#ffffff" stop-opacity="0.42"/>
    <stop offset="24%"  stop-color="#ffffff" stop-opacity="0"/>
    <stop offset="76%"  stop-color="#6fe0f7" stop-opacity="0"/>
    <stop offset="100%" stop-color="#6fe0f7" stop-opacity="0.22"/>
  </linearGradient>

  <linearGradient id="puSheen" x1="0" y1="0" x2="1" y2="0">
    <stop offset="0%"   stop-color="#ffffff" stop-opacity="0"/>
    <stop offset="45%"  stop-color="#ffffff" stop-opacity="0.5"/>
    <stop offset="55%"  stop-color="#ffffff" stop-opacity="0.5"/>
    <stop offset="100%" stop-color="#ffffff" stop-opacity="0"/>
  </linearGradient>

  <radialGradient id="puBlob" cx="42%" cy="36%" r="62%">
    <stop offset="0%"   stop-color="#6fe0f7" stop-opacity="0.5"/>
    <stop offset="65%"  stop-color="#6fe0f7" stop-opacity="0.22"/>
    <stop offset="100%" stop-color="#6fe0f7" stop-opacity="0"/>
  </radialGradient>

  <!-- blobs blurred then hard-thresholded: near ones merge, parting ones neck -->
  <filter id="puGoo" x="-30%" y="-30%" width="160%" height="160%">
    <feGaussianBlur in="SourceGraphic" stdDeviation="9" result="soft"/>
    <feColorMatrix in="soft" type="matrix" result="goo"
      values="1 0 0 0 0  0 1 0 0 0  0 0 1 0 0  0 0 0 11 -4.6"/>
    <feGaussianBlur in="goo" stdDeviation="7"/>
  </filter>

  <filter id="puCast" x="-16%" y="-16%" width="132%" height="140%">
    <feDropShadow dx="0" dy="3.2" stdDeviation="5"
                  flood-color="#000814"
                  flood-opacity="0.62"/>
  </filter>
  <clipPath id="puShape"><path d="M32.56 7.00L411.44 7.00C425.84 7.00 437.00 18.16 437.00 32.56L437.00 143.44C437.00 157.84 425.84 169.00 411.44 169.00L32.56 169.00C18.16 169.00 7.00 157.84 7.00 143.44L7.00 32.56C7.00 18.16 18.16 7.00 32.56 7.00Z"/></clipPath>
  <clipPath id="puInner"><path d="M24.04 28.00L419.96 28.00C429.56 28.00 437.00 35.44 437.00 45.04L437.00 151.96C437.00 161.56 429.56 169.00 419.96 169.00L24.04 169.00C14.44 169.00 7.00 161.56 7.00 151.96L7.00 45.04C7.00 35.44 14.44 28.00 24.04 28.00Z"/></clipPath>
</defs>


  <path d="M32.56 7.00L411.44 7.00C425.84 7.00 437.00 18.16 437.00 32.56L437.00 143.44C437.00 157.84 425.84 169.00 411.44 169.00L32.56 169.00C18.16 169.00 7.00 157.84 7.00 143.44L7.00 32.56C7.00 18.16 18.16 7.00 32.56 7.00Z" fill="#05141e" opacity="0.5" filter="url(#puCast)"/>
  <path d="M32.56 7.00L411.44 7.00C425.84 7.00 437.00 18.16 437.00 32.56L437.00 143.44C437.00 157.84 425.84 169.00 411.44 169.00L32.56 169.00C18.16 169.00 7.00 157.84 7.00 143.44L7.00 32.56C7.00 18.16 18.16 7.00 32.56 7.00Z" fill="url(#puGlass)"/>
<g clip-path="url(#puShape)" filter="url(#puGoo)" opacity="0.24"><circle r="35.6" fill="url(#puBlob)"><animate attributeName="cx" values="101.6;157.5;62.5;101.6" dur="17s" repeatCount="indefinite" calcMode="spline" keyTimes="0;0.33;0.66;1" keySplines="0.4 0 0.6 1;0.4 0 0.6 1;0.4 0 0.6 1"/><animate attributeName="cy" values="62.1;62.1;62.1;62.1" dur="22s" repeatCount="indefinite" calcMode="spline" keyTimes="0;0.33;0.66;1" keySplines="0.4 0 0.6 1;0.4 0 0.6 1;0.4 0 0.6 1"/></circle><circle r="47.0" fill="url(#puBlob)"><animate attributeName="cx" values="101.6;73.4;121.4;101.6" dur="23s" repeatCount="indefinite" calcMode="spline" keyTimes="0;0.33;0.66;1" keySplines="0.4 0 0.6 1;0.4 0 0.6 1;0.4 0 0.6 1"/><animate attributeName="cy" values="62.1;51.7;70.4;62.1" dur="30s" repeatCount="indefinite" calcMode="spline" keyTimes="0;0.33;0.66;1" keySplines="0.4 0 0.6 1;0.4 0 0.6 1;0.4 0 0.6 1"/></circle><circle r="58.3" fill="url(#puBlob)"><animate attributeName="cx" values="101.6;74.2;120.8;101.6" dur="29s" repeatCount="indefinite" calcMode="spline" keyTimes="0;0.33;0.66;1" keySplines="0.4 0 0.6 1;0.4 0 0.6 1;0.4 0 0.6 1"/><animate attributeName="cy" values="62.1;81.1;46.9;62.1" dur="38s" repeatCount="indefinite" calcMode="spline" keyTimes="0;0.33;0.66;1" keySplines="0.4 0 0.6 1;0.4 0 0.6 1;0.4 0 0.6 1"/></circle></g>
  <path d="M32.56 7.00L411.44 7.00C425.84 7.00 437.00 18.16 437.00 32.56L437.00 143.44C437.00 157.84 425.84 169.00 411.44 169.00L32.56 169.00C18.16 169.00 7.00 157.84 7.00 143.44L7.00 32.56C7.00 18.16 18.16 7.00 32.56 7.00Z" fill="url(#puGlass)" opacity="0.55"/>
  <path d="M32.56 7.00L411.44 7.00C425.84 7.00 437.00 18.16 437.00 32.56L437.00 143.44C437.00 157.84 425.84 169.00 411.44 169.00L32.56 169.00C18.16 169.00 7.00 157.84 7.00 143.44L7.00 32.56C7.00 18.16 18.16 7.00 32.56 7.00Z" fill="url(#puRefract)" opacity="0.9"/>
  <g clip-path="url(#puShape)">
    <rect x="-229.5" y="7" width="236.5" height="162"
          fill="url(#puSheen)" opacity="0.2"
          transform="skewX(-14)">
      <animate attributeName="x" values="-251.0;501.5"
               dur="14s" repeatCount="indefinite"/>
    </rect>
  </g>
  <path d="M31.89 8.60L412.11 8.60C425.23 8.60 435.40 18.77 435.40 31.89L435.40 144.11C435.40 157.23 425.23 167.40 412.11 167.40L31.89 167.40C18.77 167.40 8.60 157.23 8.60 144.11L8.60 31.89C8.60 18.77 18.77 8.60 31.89 8.60Z" fill="none" stroke="#ffffff" stroke-width="0.5"
        opacity="0.32"/>
  <path d="M32.56 7.00L411.44 7.00C425.84 7.00 437.00 18.16 437.00 32.56L437.00 143.44C437.00 157.84 425.84 169.00 411.44 169.00L32.56 169.00C18.16 169.00 7.00 157.84 7.00 143.44L7.00 32.56C7.00 18.16 18.16 7.00 32.56 7.00Z" fill="none" stroke="url(#puRim)" stroke-width="1.2"/>
<g clip-path="url(#puShape)" filter="url(#puGoo)" opacity="0.24"><circle r="58.3" fill="url(#puBlob)"><animate attributeName="cx" values="342.4;397.7;303.7;342.4" dur="23s" repeatCount="indefinite" calcMode="spline" keyTimes="0;0.33;0.66;1" keySplines="0.4 0 0.6 1;0.4 0 0.6 1;0.4 0 0.6 1"/><animate attributeName="cy" values="97.7;116.7;82.5;97.7" dur="30s" repeatCount="indefinite" calcMode="spline" keyTimes="0;0.33;0.66;1" keySplines="0.4 0 0.6 1;0.4 0 0.6 1;0.4 0 0.6 1"/></circle><circle r="35.6" fill="url(#puBlob)"><animate attributeName="cx" values="342.4;321.7;356.9;342.4" dur="29s" repeatCount="indefinite" calcMode="spline" keyTimes="0;0.33;0.66;1" keySplines="0.4 0 0.6 1;0.4 0 0.6 1;0.4 0 0.6 1"/><animate attributeName="cy" values="97.7;73.3;117.3;97.7" dur="38s" repeatCount="indefinite" calcMode="spline" keyTimes="0;0.33;0.66;1" keySplines="0.4 0 0.6 1;0.4 0 0.6 1;0.4 0 0.6 1"/></circle><circle r="47.0" fill="url(#puBlob)"><animate attributeName="cx" values="342.4;308.0;366.5;342.4" dur="35s" repeatCount="indefinite" calcMode="spline" keyTimes="0;0.33;0.66;1" keySplines="0.4 0 0.6 1;0.4 0 0.6 1;0.4 0 0.6 1"/><animate attributeName="cy" values="97.7;123.6;77.0;97.7" dur="46s" repeatCount="indefinite" calcMode="spline" keyTimes="0;0.33;0.66;1" keySplines="0.4 0 0.6 1;0.4 0 0.6 1;0.4 0 0.6 1"/></circle></g>
  <path d="M16.0 28 H428.0"
        stroke="#7fe4fa" stroke-width="0.5" opacity="0.4"/>
  <g class="t">
    <circle cx="22" cy="19" r="2.6" fill="none" stroke="#6fe0f7" stroke-width="0.45"/>
    <circle cx="22" cy="19" r="0.9" fill="#6fe0f7"/>
    <text x="31" y="22" fill="#6fe0f7" font-size="7.4" letter-spacing="2.8">DAILY PULSE</text>
    <text x="423" y="22" fill="#63a8c0" font-size="6.8" letter-spacing="1.8"
          text-anchor="end">120 DAYS</text>
  </g>
<g clip-path="url(#puInner)">

  <g class="t">
    <line x1="23" y1="110.3" x2="421" y2="110.3" stroke="#63a8c0" stroke-width="0.45" stroke-dasharray="1 5" opacity="0.4"/><line x1="23" y1="77.7" x2="421" y2="77.7" stroke="#63a8c0" stroke-width="0.45" stroke-dasharray="1 5" opacity="0.4"/><line x1="23" y1="44.0" x2="421" y2="44.0" stroke="#63a8c0" stroke-width="0.45" stroke-dasharray="1 5" opacity="0.4"/>
    <line x1="23" y1="143" x2="421" y2="143" stroke="#63a8c0" stroke-width="0.45" opacity="0.8"/>
    <line x1="23.0" y1="143" x2="23.0" y2="143.0" stroke="#25596f" stroke-width="2.2" stroke-linecap="round" opacity="0.55"/><line x1="26.3" y1="143" x2="26.3" y2="143.0" stroke="#25596f" stroke-width="2.2" stroke-linecap="round" opacity="0.55"/><line x1="29.7" y1="143" x2="29.7" y2="143.0" stroke="#25596f" stroke-width="2.2" stroke-linecap="round" opacity="0.55"/><line x1="33.0" y1="143" x2="33.0" y2="143.0" stroke="#25596f" stroke-width="2.2" stroke-linecap="round" opacity="0.55"/><line x1="36.4" y1="143" x2="36.4" y2="143.0" stroke="#25596f" stroke-width="2.2" stroke-linecap="round" opacity="0.55"/><line x1="39.7" y1="143" x2="39.7" y2="143.0" stroke="#25596f" stroke-width="2.2" stroke-linecap="round" opacity="0.55"/><line x1="43.1" y1="143" x2="43.1" y2="143.0" stroke="#25596f" stroke-width="2.2" stroke-linecap="round" opacity="0.55"/><line x1="46.4" y1="143" x2="46.4" y2="143.0" stroke="#25596f" stroke-width="2.2" stroke-linecap="round" opacity="0.55"/><line x1="49.8" y1="143" x2="49.8" y2="143.0" stroke="#25596f" stroke-width="2.2" stroke-linecap="round" opacity="0.55"/><line x1="53.1" y1="143" x2="53.1" y2="143.0" stroke="#25596f" stroke-width="2.2" stroke-linecap="round" opacity="0.55"/><line x1="56.4" y1="143" x2="56.4" y2="143.0" stroke="#25596f" stroke-width="2.2" stroke-linecap="round" opacity="0.55"/><line x1="59.8" y1="143" x2="59.8" y2="143.0" stroke="#25596f" stroke-width="2.2" stroke-linecap="round" opacity="0.55"/><line x1="63.1" y1="143" x2="63.1" y2="143.0" stroke="#25596f" stroke-width="2.2" stroke-linecap="round" opacity="0.55"/><line x1="66.5" y1="143" x2="66.5" y2="143.0" stroke="#25596f" stroke-width="2.2" stroke-linecap="round" opacity="0.55"/><line x1="69.8" y1="143" x2="69.8" y2="143.0" stroke="#25596f" stroke-width="2.2" stroke-linecap="round" opacity="0.55"/><line x1="73.2" y1="143" x2="73.2" y2="143.0" stroke="#25596f" stroke-width="2.2" stroke-linecap="round" opacity="0.55"/><line x1="76.5" y1="143" x2="76.5" y2="143.0" stroke="#25596f" stroke-width="2.2" stroke-linecap="round" opacity="0.55"/><line x1="79.9" y1="143" x2="79.9" y2="143.0" stroke="#25596f" stroke-width="2.2" stroke-linecap="round" opacity="0.55"/><line x1="83.2" y1="143" x2="83.2" y2="143.0" stroke="#25596f" stroke-width="2.2" stroke-linecap="round" opacity="0.55"/><line x1="86.5" y1="143" x2="86.5" y2="143.0" stroke="#25596f" stroke-width="2.2" stroke-linecap="round" opacity="0.55"/><line x1="89.9" y1="143" x2="89.9" y2="143.0" stroke="#25596f" stroke-width="2.2" stroke-linecap="round" opacity="0.55"/><line x1="93.2" y1="143" x2="93.2" y2="143.0" stroke="#25596f" stroke-width="2.2" stroke-linecap="round" opacity="0.55"/><line x1="96.6" y1="143" x2="96.6" y2="143.0" stroke="#25596f" stroke-width="2.2" stroke-linecap="round" opacity="0.55"/><line x1="99.9" y1="143" x2="99.9" y2="143.0" stroke="#25596f" stroke-width="2.2" stroke-linecap="round" opacity="0.55"/><line x1="103.3" y1="143" x2="103.3" y2="143.0" stroke="#25596f" stroke-width="2.2" stroke-linecap="round" opacity="0.55"/><line x1="106.6" y1="143" x2="106.6" y2="143.0" stroke="#25596f" stroke-width="2.2" stroke-linecap="round" opacity="0.55"/><line x1="110.0" y1="143" x2="110.0" y2="143.0" stroke="#25596f" stroke-width="2.2" stroke-linecap="round" opacity="0.55"/><line x1="113.3" y1="143" x2="113.3" y2="143.0" stroke="#25596f" stroke-width="2.2" stroke-linecap="round" opacity="0.55"/><line x1="116.6" y1="143" x2="116.6" y2="143.0" stroke="#25596f" stroke-width="2.2" stroke-linecap="round" opacity="0.55"/><line x1="120.0" y1="143" x2="120.0" y2="143.0" stroke="#25596f" stroke-width="2.2" stroke-linecap="round" opacity="0.55"/><line x1="123.3" y1="143" x2="123.3" y2="143.0" stroke="#25596f" stroke-width="2.2" stroke-linecap="round" opacity="0.55"/><line x1="126.7" y1="143" x2="126.7" y2="143.0" stroke="#25596f" stroke-width="2.2" stroke-linecap="round" opacity="0.55"/><line x1="130.0" y1="143" x2="130.0" y2="143.0" stroke="#25596f" stroke-width="2.2" stroke-linecap="round" opacity="0.55"/><line x1="133.4" y1="143" x2="133.4" y2="143.0" stroke="#25596f" stroke-width="2.2" stroke-linecap="round" opacity="0.55"/><line x1="136.7" y1="143" x2="136.7" y2="143.0" stroke="#25596f" stroke-width="2.2" stroke-linecap="round" opacity="0.55"/><line x1="140.1" y1="143" x2="140.1" y2="143.0" stroke="#25596f" stroke-width="2.2" stroke-linecap="round" opacity="0.55"/><line x1="143.4" y1="143" x2="143.4" y2="143.0" stroke="#25596f" stroke-width="2.2" stroke-linecap="round" opacity="0.55"/><line x1="146.7" y1="143" x2="146.7" y2="143.0" stroke="#25596f" stroke-width="2.2" stroke-linecap="round" opacity="0.55"/><line x1="150.1" y1="143" x2="150.1" y2="143.0" stroke="#25596f" stroke-width="2.2" stroke-linecap="round" opacity="0.55"/><line x1="153.4" y1="143" x2="153.4" y2="143.0" stroke="#25596f" stroke-width="2.2" stroke-linecap="round" opacity="0.55"/><line x1="156.8" y1="143" x2="156.8" y2="143.0" stroke="#25596f" stroke-width="2.2" stroke-linecap="round" opacity="0.55"/><line x1="160.1" y1="143" x2="160.1" y2="143.0" stroke="#25596f" stroke-width="2.2" stroke-linecap="round" opacity="0.55"/><line x1="163.5" y1="143" x2="163.5" y2="143.0" stroke="#25596f" stroke-width="2.2" stroke-linecap="round" opacity="0.55"/><line x1="166.8" y1="143" x2="166.8" y2="143.0" stroke="#25596f" stroke-width="2.2" stroke-linecap="round" opacity="0.55"/><line x1="170.2" y1="143" x2="170.2" y2="143.0" stroke="#25596f" stroke-width="2.2" stroke-linecap="round" opacity="0.55"/><line x1="173.5" y1="143" x2="173.5" y2="143.0" stroke="#25596f" stroke-width="2.2" stroke-linecap="round" opacity="0.55"/><line x1="176.8" y1="143" x2="176.8" y2="106.7" stroke="#1a7592" stroke-width="2.2" stroke-linecap="round" opacity="0.95"/><line x1="180.2" y1="143" x2="180.2" y2="143.0" stroke="#25596f" stroke-width="2.2" stroke-linecap="round" opacity="0.55"/><line x1="183.5" y1="143" x2="183.5" y2="143.0" stroke="#25596f" stroke-width="2.2" stroke-linecap="round" opacity="0.55"/><line x1="186.9" y1="143" x2="186.9" y2="100.9" stroke="#1a7592" stroke-width="2.2" stroke-linecap="round" opacity="0.95"/><line x1="190.2" y1="143" x2="190.2" y2="143.0" stroke="#25596f" stroke-width="2.2" stroke-linecap="round" opacity="0.55"/><line x1="193.6" y1="143" x2="193.6" y2="124.9" stroke="#1a7592" stroke-width="2.2" stroke-linecap="round" opacity="0.95"/><line x1="196.9" y1="143" x2="196.9" y2="124.9" stroke="#1a7592" stroke-width="2.2" stroke-linecap="round" opacity="0.95"/><line x1="200.3" y1="143" x2="200.3" y2="143.0" stroke="#25596f" stroke-width="2.2" stroke-linecap="round" opacity="0.55"/><line x1="203.6" y1="143" x2="203.6" y2="143.0" stroke="#25596f" stroke-width="2.2" stroke-linecap="round" opacity="0.55"/><line x1="206.9" y1="143" x2="206.9" y2="143.0" stroke="#25596f" stroke-width="2.2" stroke-linecap="round" opacity="0.55"/><line x1="210.3" y1="143" x2="210.3" y2="143.0" stroke="#25596f" stroke-width="2.2" stroke-linecap="round" opacity="0.55"/><line x1="213.6" y1="143" x2="213.6" y2="143.0" stroke="#25596f" stroke-width="2.2" stroke-linecap="round" opacity="0.55"/><line x1="217.0" y1="143" x2="217.0" y2="143.0" stroke="#25596f" stroke-width="2.2" stroke-linecap="round" opacity="0.55"/><line x1="220.3" y1="143" x2="220.3" y2="143.0" stroke="#25596f" stroke-width="2.2" stroke-linecap="round" opacity="0.55"/><line x1="223.7" y1="143" x2="223.7" y2="124.9" stroke="#1a7592" stroke-width="2.2" stroke-linecap="round" opacity="0.95"/><line x1="227.0" y1="143" x2="227.0" y2="143.0" stroke="#25596f" stroke-width="2.2" stroke-linecap="round" opacity="0.55"/><line x1="230.4" y1="143" x2="230.4" y2="143.0" stroke="#25596f" stroke-width="2.2" stroke-linecap="round" opacity="0.55"/><line x1="233.7" y1="143" x2="233.7" y2="143.0" stroke="#25596f" stroke-width="2.2" stroke-linecap="round" opacity="0.55"/><line x1="237.1" y1="143" x2="237.1" y2="44.0" stroke="#b4f3ff" stroke-width="2.2" stroke-linecap="round" opacity="0.95"/><line x1="240.4" y1="143" x2="240.4" y2="72.2" stroke="#28abcc" stroke-width="2.2" stroke-linecap="round" opacity="0.95"/><line x1="243.7" y1="143" x2="243.7" y2="72.2" stroke="#28abcc" stroke-width="2.2" stroke-linecap="round" opacity="0.95"/><line x1="247.1" y1="143" x2="247.1" y2="85.5" stroke="#1a7592" stroke-width="2.2" stroke-linecap="round" opacity="0.95"/><line x1="250.4" y1="143" x2="250.4" y2="143.0" stroke="#25596f" stroke-width="2.2" stroke-linecap="round" opacity="0.55"/><line x1="253.8" y1="143" x2="253.8" y2="88.6" stroke="#1a7592" stroke-width="2.2" stroke-linecap="round" opacity="0.95"/><line x1="257.1" y1="143" x2="257.1" y2="100.9" stroke="#1a7592" stroke-width="2.2" stroke-linecap="round" opacity="0.95"/><line x1="260.5" y1="143" x2="260.5" y2="124.9" stroke="#1a7592" stroke-width="2.2" stroke-linecap="round" opacity="0.95"/><line x1="263.8" y1="143" x2="263.8" y2="143.0" stroke="#25596f" stroke-width="2.2" stroke-linecap="round" opacity="0.55"/><line x1="267.2" y1="143" x2="267.2" y2="74.0" stroke="#28abcc" stroke-width="2.2" stroke-linecap="round" opacity="0.95"/><line x1="270.5" y1="143" x2="270.5" y2="124.9" stroke="#1a7592" stroke-width="2.2" stroke-linecap="round" opacity="0.95"/><line x1="273.8" y1="143" x2="273.8" y2="143.0" stroke="#25596f" stroke-width="2.2" stroke-linecap="round" opacity="0.55"/><line x1="277.2" y1="143" x2="277.2" y2="114.3" stroke="#1a7592" stroke-width="2.2" stroke-linecap="round" opacity="0.95"/><line x1="280.5" y1="143" x2="280.5" y2="143.0" stroke="#25596f" stroke-width="2.2" stroke-linecap="round" opacity="0.55"/><line x1="283.9" y1="143" x2="283.9" y2="114.3" stroke="#1a7592" stroke-width="2.2" stroke-linecap="round" opacity="0.95"/><line x1="287.2" y1="143" x2="287.2" y2="143.0" stroke="#25596f" stroke-width="2.2" stroke-linecap="round" opacity="0.55"/><line x1="290.6" y1="143" x2="290.6" y2="96.1" stroke="#1a7592" stroke-width="2.2" stroke-linecap="round" opacity="0.95"/><line x1="293.9" y1="143" x2="293.9" y2="96.1" stroke="#1a7592" stroke-width="2.2" stroke-linecap="round" opacity="0.95"/><line x1="297.3" y1="143" x2="297.3" y2="106.7" stroke="#1a7592" stroke-width="2.2" stroke-linecap="round" opacity="0.95"/><line x1="300.6" y1="143" x2="300.6" y2="85.5" stroke="#1a7592" stroke-width="2.2" stroke-linecap="round" opacity="0.95"/><line x1="303.9" y1="143" x2="303.9" y2="143.0" stroke="#25596f" stroke-width="2.2" stroke-linecap="round" opacity="0.55"/><line x1="307.3" y1="143" x2="307.3" y2="143.0" stroke="#25596f" stroke-width="2.2" stroke-linecap="round" opacity="0.55"/><line x1="310.6" y1="143" x2="310.6" y2="114.3" stroke="#1a7592" stroke-width="2.2" stroke-linecap="round" opacity="0.95"/><line x1="314.0" y1="143" x2="314.0" y2="143.0" stroke="#25596f" stroke-width="2.2" stroke-linecap="round" opacity="0.55"/><line x1="317.3" y1="143" x2="317.3" y2="143.0" stroke="#25596f" stroke-width="2.2" stroke-linecap="round" opacity="0.55"/><line x1="320.7" y1="143" x2="320.7" y2="143.0" stroke="#25596f" stroke-width="2.2" stroke-linecap="round" opacity="0.55"/><line x1="324.0" y1="143" x2="324.0" y2="143.0" stroke="#25596f" stroke-width="2.2" stroke-linecap="round" opacity="0.55"/><line x1="327.4" y1="143" x2="327.4" y2="143.0" stroke="#25596f" stroke-width="2.2" stroke-linecap="round" opacity="0.55"/><line x1="330.7" y1="143" x2="330.7" y2="143.0" stroke="#25596f" stroke-width="2.2" stroke-linecap="round" opacity="0.55"/><line x1="334.0" y1="143" x2="334.0" y2="143.0" stroke="#25596f" stroke-width="2.2" stroke-linecap="round" opacity="0.55"/><line x1="337.4" y1="143" x2="337.4" y2="143.0" stroke="#25596f" stroke-width="2.2" stroke-linecap="round" opacity="0.55"/><line x1="340.7" y1="143" x2="340.7" y2="100.9" stroke="#1a7592" stroke-width="2.2" stroke-linecap="round" opacity="0.95"/><line x1="344.1" y1="143" x2="344.1" y2="143.0" stroke="#25596f" stroke-width="2.2" stroke-linecap="round" opacity="0.55"/><line x1="347.4" y1="143" x2="347.4" y2="143.0" stroke="#25596f" stroke-width="2.2" stroke-linecap="round" opacity="0.55"/><line x1="350.8" y1="143" x2="350.8" y2="143.0" stroke="#25596f" stroke-width="2.2" stroke-linecap="round" opacity="0.55"/><line x1="354.1" y1="143" x2="354.1" y2="143.0" stroke="#25596f" stroke-width="2.2" stroke-linecap="round" opacity="0.55"/><line x1="357.5" y1="143" x2="357.5" y2="100.9" stroke="#1a7592" stroke-width="2.2" stroke-linecap="round" opacity="0.95"/><line x1="360.8" y1="143" x2="360.8" y2="143.0" stroke="#25596f" stroke-width="2.2" stroke-linecap="round" opacity="0.55"/><line x1="364.1" y1="143" x2="364.1" y2="143.0" stroke="#25596f" stroke-width="2.2" stroke-linecap="round" opacity="0.55"/><line x1="367.5" y1="143" x2="367.5" y2="143.0" stroke="#25596f" stroke-width="2.2" stroke-linecap="round" opacity="0.55"/><line x1="370.8" y1="143" x2="370.8" y2="143.0" stroke="#25596f" stroke-width="2.2" stroke-linecap="round" opacity="0.55"/><line x1="374.2" y1="143" x2="374.2" y2="124.9" stroke="#1a7592" stroke-width="2.2" stroke-linecap="round" opacity="0.95"/><line x1="377.5" y1="143" x2="377.5" y2="96.1" stroke="#1a7592" stroke-width="2.2" stroke-linecap="round" opacity="0.95"/><line x1="380.9" y1="143" x2="380.9" y2="143.0" stroke="#25596f" stroke-width="2.2" stroke-linecap="round" opacity="0.55"/><line x1="384.2" y1="143" x2="384.2" y2="143.0" stroke="#25596f" stroke-width="2.2" stroke-linecap="round" opacity="0.55"/><line x1="387.6" y1="143" x2="387.6" y2="143.0" stroke="#25596f" stroke-width="2.2" stroke-linecap="round" opacity="0.55"/><line x1="390.9" y1="143" x2="390.9" y2="143.0" stroke="#25596f" stroke-width="2.2" stroke-linecap="round" opacity="0.55"/><line x1="394.2" y1="143" x2="394.2" y2="106.7" stroke="#1a7592" stroke-width="2.2" stroke-linecap="round" opacity="0.95"/><line x1="397.6" y1="143" x2="397.6" y2="143.0" stroke="#25596f" stroke-width="2.2" stroke-linecap="round" opacity="0.55"/><line x1="400.9" y1="143" x2="400.9" y2="143.0" stroke="#25596f" stroke-width="2.2" stroke-linecap="round" opacity="0.55"/><line x1="404.3" y1="143" x2="404.3" y2="143.0" stroke="#25596f" stroke-width="2.2" stroke-linecap="round" opacity="0.55"/><line x1="407.6" y1="143" x2="407.6" y2="143.0" stroke="#25596f" stroke-width="2.2" stroke-linecap="round" opacity="0.55"/><line x1="411.0" y1="143" x2="411.0" y2="124.9" stroke="#1a7592" stroke-width="2.2" stroke-linecap="round" opacity="0.95"/><line x1="414.3" y1="143" x2="414.3" y2="143.0" stroke="#25596f" stroke-width="2.2" stroke-linecap="round" opacity="0.55"/><line x1="417.7" y1="143" x2="417.7" y2="143.0" stroke="#25596f" stroke-width="2.2" stroke-linecap="round" opacity="0.55"/><line x1="421.0" y1="143" x2="421.0" y2="143.0" stroke="#25596f" stroke-width="2.2" stroke-linecap="round" opacity="0.55"/>
    <text x="19" y="47" fill="#63a8c0" font-size="6.3" text-anchor="end">43</text>
    <text x="19" y="146" fill="#63a8c0" font-size="6.3" text-anchor="end">0</text>
    <g>
      <animateTransform attributeName="transform" type="translate"
                        values="0 0;398 0;0 0" dur="18s"
                        calcMode="spline" keySplines="0.4 0 0.6 1;0.4 0 0.6 1" keyTimes="0;0.5;1"
                        repeatCount="indefinite"/>
      <line x1="23" y1="36" x2="23" y2="148" stroke="#f0c069" stroke-width="0.7" opacity="0.9"/>
      <path d="M19.5 36 L26.5 36 L23 41 Z" fill="#f0c069"/>
    </g>
    <text x="421" y="159" fill="#63a8c0" font-size="6.5" letter-spacing="1.6" text-anchor="end">CONTRIBUTIONS PER DAY</text>
    <text x="23" y="159" fill="#63a8c0" font-size="6.5" letter-spacing="1.6">TOTAL 160</text>
  </g>
  <rect x="7" y="28" width="430" height="141" fill="url(#puScan)" opacity="0.2"/>
  <rect x="7" y="28" width="430" height="141" filter="url(#puGrain)" opacity="0.16"/>
</g>
</svg>
