<svg xmlns="http://www.w3.org/2000/svg" viewBox="0 0 900 186" width="900" height="186" role="img" aria-label="recent commits">
<defs>
  <radialGradient id="lgDeep" cx="16%" cy="50%" r="88%">
    <stop offset="0%" stop-color="#ffffff" stop-opacity="0.58"/>
    <stop offset="46%" stop-color="#eef4f8" stop-opacity="0.42"/>
    <stop offset="100%" stop-color="#dde8ef" stop-opacity="0.26"/>
  </radialGradient>
  <radialGradient id="lgVig" cx="50%" cy="50%" r="74%">
    <stop offset="58%" stop-color="#3d6b80" stop-opacity="0"/>
    <stop offset="100%" stop-color="#3d6b80" stop-opacity="0.16"/>
  </radialGradient>
  <radialGradient id="lgCore" cx="50%" cy="42%" r="58%"><stop offset="0%" stop-color="#ffffff" stop-opacity="1"/><stop offset="26%" stop-color="#dff2fa" stop-opacity="1"/><stop offset="60%" stop-color="#7cc6dd" stop-opacity="0.5"/><stop offset="100%" stop-color="#bcd9e5" stop-opacity="0"/></radialGradient>
  <linearGradient id="lgSweep" x1="0" y1="0" x2="1" y2="0">
    <stop offset="0%" stop-color="#0e7490" stop-opacity="0"/>
    <stop offset="52%" stop-color="#0e7490" stop-opacity="0.45"/>
    <stop offset="100%" stop-color="#0e7490" stop-opacity="0"/>
  </linearGradient>
  <filter id="lgBevel" x="-60%" y="-60%" width="220%" height="220%">
    <feGaussianBlur in="SourceAlpha" stdDeviation="1.4" result="hh"/>
    <feSpecularLighting in="hh" surfaceScale="3.6" specularConstant="0.85"
                        specularExponent="26" lighting-color="#dff6ff" result="s">
      <fePointLight x="-70" y="-70" z="60">
        <animate attributeName="x" values="-70;70;-70" dur="9s" repeatCount="indefinite"/>
        <animate attributeName="y" values="-70;70;-70" dur="13s" repeatCount="indefinite"/>
      </fePointLight>
    </feSpecularLighting>
    <feComposite in="s" in2="SourceAlpha" operator="in" result="sc"/>
    <feComposite in="SourceGraphic" in2="sc" operator="arithmetic" k1="0" k2="1" k3="0.41" k4="0"/>
  </filter>
  <filter id="lgGlow" x="-200%" y="-200%" width="500%" height="500%">
    <feGaussianBlur in="SourceGraphic" stdDeviation="0.41" result="a"/>
    <feGaussianBlur in="SourceGraphic" stdDeviation="1.62" result="b"/>
    <feMerge><feMergeNode in="b"/><feMergeNode in="a"/><feMergeNode in="SourceGraphic"/></feMerge>
  </filter>
  <filter id="lgGrain" x="0%" y="0%" width="100%" height="100%">
    <feTurbulence type="fractalNoise" baseFrequency="0.8" numOctaves="3" seed="5" result="n">
      <animate attributeName="seed" values="5;13;21;5" dur="1.3s" calcMode="discrete" repeatCount="indefinite"/>
    </feTurbulence>
    <feColorMatrix in="n" type="matrix"
      values="0 0 0 0 0.12  0 0 0 0 0.66  0 0 0 0 0.8  0 0 0 0.06 0"/>
  </filter>
  <pattern id="lgScan" width="3" height="3" patternUnits="userSpaceOnUse">
    <rect width="3" height="0.8" fill="#9dbccb" opacity="0.16"/>
  </pattern>
  <clipPath id="lgClip"><rect width="900" height="186" rx="3"/></clipPath>
  <style>.t{font-family:"SFMono-Regular","SF Mono",Menlo,Consolas,"DejaVu Sans Mono",monospace;}</style>
  <linearGradient id="lgGlass" x1="0.1" y1="0" x2="0.6" y2="1">
    <stop offset="0%"   stop-color="#ffffff" stop-opacity="0.58"/>
    <stop offset="38%"  stop-color="#eef4f8"   stop-opacity="0.42"/>
    <stop offset="100%" stop-color="#dde8ef" stop-opacity="0.26"/>
  </linearGradient>

  <!-- the rim catches light twice: once top-left, once bottom-right -->
  <linearGradient id="lgRim" x1="0" y1="0" x2="1" y2="1">
    <stop offset="0%"   stop-color="#ffffff" stop-opacity="1"/>
    <stop offset="16%"  stop-color="#0e7490" stop-opacity="0.55"/>
    <stop offset="45%"  stop-color="#0e7490" stop-opacity="0.2"/>
    <stop offset="72%"  stop-color="#0e7490" stop-opacity="0.4"/>
    <stop offset="100%" stop-color="#ffffff" stop-opacity="0.75"/>
  </linearGradient>

  <!-- light bends through the thickness at the edge, so the rim band is not flat -->
  <linearGradient id="lgRefract" x1="0" y1="0" x2="0" y2="1">
    <stop offset="0%"   stop-color="#ffffff" stop-opacity="0.85"/>
    <stop offset="24%"  stop-color="#ffffff" stop-opacity="0"/>
    <stop offset="76%"  stop-color="#0e7490" stop-opacity="0"/>
    <stop offset="100%" stop-color="#0e7490" stop-opacity="0.3"/>
  </linearGradient>

  <linearGradient id="lgSheen" x1="0" y1="0" x2="1" y2="0">
    <stop offset="0%"   stop-color="#ffffff" stop-opacity="0"/>
    <stop offset="45%"  stop-color="#ffffff" stop-opacity="0.8"/>
    <stop offset="55%"  stop-color="#ffffff" stop-opacity="0.8"/>
    <stop offset="100%" stop-color="#ffffff" stop-opacity="0"/>
  </linearGradient>

  <radialGradient id="lgBlob" cx="42%" cy="36%" r="62%">
    <stop offset="0%"   stop-color="#0e7490" stop-opacity="0.42"/>
    <stop offset="65%"  stop-color="#0e7490" stop-opacity="0.18"/>
    <stop offset="100%" stop-color="#0e7490" stop-opacity="0"/>
  </radialGradient>

  <!-- blobs blurred then hard-thresholded: near ones merge, parting ones neck -->
  <filter id="lgGoo" x="-30%" y="-30%" width="160%" height="160%">
    <feGaussianBlur in="SourceGraphic" stdDeviation="9" result="soft"/>
    <feColorMatrix in="soft" type="matrix" result="goo"
      values="1 0 0 0 0  0 1 0 0 0  0 0 1 0 0  0 0 0 11 -4.6"/>
    <feGaussianBlur in="goo" stdDeviation="7"/>
  </filter>

  <filter id="lgCast" x="-16%" y="-16%" width="132%" height="140%">
    <feDropShadow dx="0" dy="2.6" stdDeviation="4"
                  flood-color="#2c5468"
                  flood-opacity="0.2"/>
  </filter>
  <clipPath id="lgShape"><path d="M32.56 7.00L867.44 7.00C881.84 7.00 893.00 18.16 893.00 32.56L893.00 153.44C893.00 167.84 881.84 179.00 867.44 179.00L32.56 179.00C18.16 179.00 7.00 167.84 7.00 153.44L7.00 32.56C7.00 18.16 18.16 7.00 32.56 7.00Z"/></clipPath>
  <clipPath id="lgInner"><path d="M24.04 28.00L875.96 28.00C885.56 28.00 893.00 35.44 893.00 45.04L893.00 161.96C893.00 171.56 885.56 179.00 875.96 179.00L24.04 179.00C14.44 179.00 7.00 171.56 7.00 161.96L7.00 45.04C7.00 35.44 14.44 28.00 24.04 28.00Z"/></clipPath>
</defs>


  <path d="M32.56 7.00L867.44 7.00C881.84 7.00 893.00 18.16 893.00 32.56L893.00 153.44C893.00 167.84 881.84 179.00 867.44 179.00L32.56 179.00C18.16 179.00 7.00 167.84 7.00 153.44L7.00 32.56C7.00 18.16 18.16 7.00 32.56 7.00Z" fill="#dde8ef" opacity="0.24" filter="url(#lgCast)"/>
  <path d="M32.56 7.00L867.44 7.00C881.84 7.00 893.00 18.16 893.00 32.56L893.00 153.44C893.00 167.84 881.84 179.00 867.44 179.00L32.56 179.00C18.16 179.00 7.00 167.84 7.00 153.44L7.00 32.56C7.00 18.16 18.16 7.00 32.56 7.00Z" fill="url(#lgGlass)"/>
<g clip-path="url(#lgShape)" filter="url(#lgGoo)" opacity="0.22"><circle r="37.8" fill="url(#lgBlob)"><animate attributeName="cx" values="201.9;317.1;121.3;201.9" dur="17s" repeatCount="indefinite" calcMode="spline" keyTimes="0;0.33;0.66;1" keySplines="0.4 0 0.6 1;0.4 0 0.6 1;0.4 0 0.6 1"/><animate attributeName="cy" values="65.5;65.5;65.5;65.5" dur="22s" repeatCount="indefinite" calcMode="spline" keyTimes="0;0.33;0.66;1" keySplines="0.4 0 0.6 1;0.4 0 0.6 1;0.4 0 0.6 1"/></circle><circle r="49.9" fill="url(#lgBlob)"><animate attributeName="cx" values="201.9;143.8;242.6;201.9" dur="23s" repeatCount="indefinite" calcMode="spline" keyTimes="0;0.33;0.66;1" keySplines="0.4 0 0.6 1;0.4 0 0.6 1;0.4 0 0.6 1"/><animate attributeName="cy" values="65.5;54.5;74.3;65.5" dur="30s" repeatCount="indefinite" calcMode="spline" keyTimes="0;0.33;0.66;1" keySplines="0.4 0 0.6 1;0.4 0 0.6 1;0.4 0 0.6 1"/></circle><circle r="61.9" fill="url(#lgBlob)"><animate attributeName="cx" values="201.9;145.5;241.4;201.9" dur="29s" repeatCount="indefinite" calcMode="spline" keyTimes="0;0.33;0.66;1" keySplines="0.4 0 0.6 1;0.4 0 0.6 1;0.4 0 0.6 1"/><animate attributeName="cy" values="65.5;85.7;49.3;65.5" dur="38s" repeatCount="indefinite" calcMode="spline" keyTimes="0;0.33;0.66;1" keySplines="0.4 0 0.6 1;0.4 0 0.6 1;0.4 0 0.6 1"/></circle></g>
  <path d="M32.56 7.00L867.44 7.00C881.84 7.00 893.00 18.16 893.00 32.56L893.00 153.44C893.00 167.84 881.84 179.00 867.44 179.00L32.56 179.00C18.16 179.00 7.00 167.84 7.00 153.44L7.00 32.56C7.00 18.16 18.16 7.00 32.56 7.00Z" fill="url(#lgGlass)" opacity="0.55"/>
  <path d="M32.56 7.00L867.44 7.00C881.84 7.00 893.00 18.16 893.00 32.56L893.00 153.44C893.00 167.84 881.84 179.00 867.44 179.00L32.56 179.00C18.16 179.00 7.00 167.84 7.00 153.44L7.00 32.56C7.00 18.16 18.16 7.00 32.56 7.00Z" fill="url(#lgRefract)" opacity="0.9"/>
  <g clip-path="url(#lgShape)">
    <rect x="-480.3" y="7" width="487.3" height="172"
          fill="url(#lgSheen)" opacity="0.5"
          transform="skewX(-14)">
      <animate attributeName="x" values="-524.6;1025.9"
               dur="14s" repeatCount="indefinite"/>
    </rect>
  </g>
  <path d="M31.89 8.60L868.11 8.60C881.23 8.60 891.40 18.77 891.40 31.89L891.40 154.11C891.40 167.23 881.23 177.40 868.11 177.40L31.89 177.40C18.77 177.40 8.60 167.23 8.60 154.11L8.60 31.89C8.60 18.77 18.77 8.60 31.89 8.60Z" fill="none" stroke="#ffffff" stroke-width="0.5"
        opacity="0.55"/>
  <path d="M32.56 7.00L867.44 7.00C881.84 7.00 893.00 18.16 893.00 32.56L893.00 153.44C893.00 167.84 881.84 179.00 867.44 179.00L32.56 179.00C18.16 179.00 7.00 167.84 7.00 153.44L7.00 32.56C7.00 18.16 18.16 7.00 32.56 7.00Z" fill="none" stroke="url(#lgRim)" stroke-width="1.2"/>
<g clip-path="url(#lgShape)" filter="url(#lgGoo)" opacity="0.22"><circle r="49.9" fill="url(#lgBlob)"><animate attributeName="cx" values="450.0;335.5;530.1;450.0" dur="20s" repeatCount="indefinite" calcMode="spline" keyTimes="0;0.33;0.66;1" keySplines="0.4 0 0.6 1;0.4 0 0.6 1;0.4 0 0.6 1"/><animate attributeName="cy" values="103.3;115.4;93.6;103.3" dur="26s" repeatCount="indefinite" calcMode="spline" keyTimes="0;0.33;0.66;1" keySplines="0.4 0 0.6 1;0.4 0 0.6 1;0.4 0 0.6 1"/></circle><circle r="61.9" fill="url(#lgBlob)"><animate attributeName="cx" values="450.0;518.6;402.0;450.0" dur="26s" repeatCount="indefinite" calcMode="spline" keyTimes="0;0.33;0.66;1" keySplines="0.4 0 0.6 1;0.4 0 0.6 1;0.4 0 0.6 1"/><animate attributeName="cy" values="103.3;102.1;104.3;103.3" dur="34s" repeatCount="indefinite" calcMode="spline" keyTimes="0;0.33;0.66;1" keySplines="0.4 0 0.6 1;0.4 0 0.6 1;0.4 0 0.6 1"/></circle><circle r="37.8" fill="url(#lgBlob)"><animate attributeName="cx" values="450.0;495.2;418.3;450.0" dur="32s" repeatCount="indefinite" calcMode="spline" keyTimes="0;0.33;0.66;1" keySplines="0.4 0 0.6 1;0.4 0 0.6 1;0.4 0 0.6 1"/><animate attributeName="cy" values="103.3;93.4;111.2;103.3" dur="42s" repeatCount="indefinite" calcMode="spline" keyTimes="0;0.33;0.66;1" keySplines="0.4 0 0.6 1;0.4 0 0.6 1;0.4 0 0.6 1"/></circle></g>
  <path d="M16.0 28 H884.0"
        stroke="#0e7490" stroke-width="0.5" opacity="0.4"/>
  <g class="t">
    <circle cx="22" cy="19" r="2.6" fill="none" stroke="#0e7490" stroke-width="0.45"/>
    <circle cx="22" cy="19" r="0.9" fill="#0e7490"/>
    <text x="31" y="22" fill="#0e7490" font-size="7.4" letter-spacing="2.8">COMMIT STREAM</text>
    <text x="879" y="22" fill="#5d8ba0" font-size="6.8" letter-spacing="1.8"
          text-anchor="end">9 RECENT</text>
  </g>
<g clip-path="url(#lgInner)">

  <g class="t">
    <g>
      <animateTransform attributeName="transform" type="translate" values="0 0;0 -153"
                        dur="23s" calcMode="linear" repeatCount="indefinite"/>
      <text x="23" y="44" fill="#5d8ba0" font-size="8.1">20:35</text><text x="69" y="44" fill="#9a6a10" font-size="8.1">shuccii</text><text x="237" y="44" fill="#1d4d61" font-size="8.1">chore: refresh telemetry panels</text><rect x="17" y="36" width="2" height="10" fill="#0e7490" opacity="0.9"/><text x="23" y="61" fill="#5d8ba0" font-size="8.1">20:31</text><text x="69" y="61" fill="#9a6a10" font-size="8.1">shuccii</text><text x="237" y="61" fill="#1d4d61" font-size="8.1">chore: refresh telemetry panels</text><rect x="17" y="53" width="2" height="10" fill="#0e7490" opacity="0.25"/><text x="23" y="78" fill="#5d8ba0" font-size="8.1">09:29</text><text x="69" y="78" fill="#9a6a10" font-size="8.1">shuccii</text><text x="237" y="78" fill="#1d4d61" font-size="8.1">chore: refresh telemetry panels</text><rect x="17" y="70" width="2" height="10" fill="#0e7490" opacity="0.25"/><text x="23" y="95" fill="#5d8ba0" font-size="8.1">09:29</text><text x="69" y="95" fill="#9a6a10" font-size="8.1">shuccii</text><text x="237" y="95" fill="#1d4d61" font-size="8.1">fix: stop the refresh workflow racing every push</text><rect x="17" y="87" width="2" height="10" fill="#0e7490" opacity="0.25"/><text x="23" y="112" fill="#5d8ba0" font-size="8.1">09:28</text><text x="69" y="112" fill="#9a6a10" font-size="8.1">shuccii</text><text x="237" y="112" fill="#1d4d61" font-size="8.1">feat: draw the activity section too, and drop the last third-party im…</text><rect x="17" y="104" width="2" height="10" fill="#0e7490" opacity="0.25"/><text x="23" y="129" fill="#5d8ba0" font-size="8.1">09:18</text><text x="69" y="129" fill="#9a6a10" font-size="8.1">shuccii</text><text x="237" y="129" fill="#1d4d61" font-size="8.1">chore: refresh telemetry panels</text><rect x="17" y="121" width="2" height="10" fill="#0e7490" opacity="0.25"/><text x="23" y="146" fill="#5d8ba0" font-size="8.1">09:18</text><text x="69" y="146" fill="#9a6a10" font-size="8.1">shuccii</text><text x="237" y="146" fill="#1d4d61" font-size="8.1">feat: break the banner into a board of instruments</text><rect x="17" y="138" width="2" height="10" fill="#0e7490" opacity="0.25"/><text x="23" y="163" fill="#5d8ba0" font-size="8.1">03:49</text><text x="69" y="163" fill="#9a6a10" font-size="8.1">conductivity-claude</text><text x="237" y="163" fill="#1d4d61" font-size="8.1">Add annotated CLAUDE data assimilation example</text><rect x="17" y="155" width="2" height="10" fill="#0e7490" opacity="0.25"/><text x="23" y="180" fill="#5d8ba0" font-size="8.1">20:54</text><text x="69" y="180" fill="#9a6a10" font-size="8.1">shuccii</text><text x="237" y="180" fill="#1d4d61" font-size="8.1">chore: refresh telemetry panels</text><rect x="17" y="172" width="2" height="10" fill="#0e7490" opacity="0.25"/><text x="23" y="197" fill="#5d8ba0" font-size="8.1">20:35</text><text x="69" y="197" fill="#9a6a10" font-size="8.1">shuccii</text><text x="237" y="197" fill="#1d4d61" font-size="8.1">chore: refresh telemetry panels</text><rect x="17" y="189" width="2" height="10" fill="#0e7490" opacity="0.9"/><text x="23" y="214" fill="#5d8ba0" font-size="8.1">20:31</text><text x="69" y="214" fill="#9a6a10" font-size="8.1">shuccii</text><text x="237" y="214" fill="#1d4d61" font-size="8.1">chore: refresh telemetry panels</text><rect x="17" y="206" width="2" height="10" fill="#0e7490" opacity="0.25"/><text x="23" y="231" fill="#5d8ba0" font-size="8.1">09:29</text><text x="69" y="231" fill="#9a6a10" font-size="8.1">shuccii</text><text x="237" y="231" fill="#1d4d61" font-size="8.1">chore: refresh telemetry panels</text><rect x="17" y="223" width="2" height="10" fill="#0e7490" opacity="0.25"/><text x="23" y="248" fill="#5d8ba0" font-size="8.1">09:29</text><text x="69" y="248" fill="#9a6a10" font-size="8.1">shuccii</text><text x="237" y="248" fill="#1d4d61" font-size="8.1">fix: stop the refresh workflow racing every push</text><rect x="17" y="240" width="2" height="10" fill="#0e7490" opacity="0.25"/><text x="23" y="265" fill="#5d8ba0" font-size="8.1">09:28</text><text x="69" y="265" fill="#9a6a10" font-size="8.1">shuccii</text><text x="237" y="265" fill="#1d4d61" font-size="8.1">feat: draw the activity section too, and drop the last third-party im…</text><rect x="17" y="257" width="2" height="10" fill="#0e7490" opacity="0.25"/><text x="23" y="282" fill="#5d8ba0" font-size="8.1">09:18</text><text x="69" y="282" fill="#9a6a10" font-size="8.1">shuccii</text><text x="237" y="282" fill="#1d4d61" font-size="8.1">chore: refresh telemetry panels</text><rect x="17" y="274" width="2" height="10" fill="#0e7490" opacity="0.25"/><text x="23" y="299" fill="#5d8ba0" font-size="8.1">09:18</text><text x="69" y="299" fill="#9a6a10" font-size="8.1">shuccii</text><text x="237" y="299" fill="#1d4d61" font-size="8.1">feat: break the banner into a board of instruments</text><rect x="17" y="291" width="2" height="10" fill="#0e7490" opacity="0.25"/><text x="23" y="316" fill="#5d8ba0" font-size="8.1">03:49</text><text x="69" y="316" fill="#9a6a10" font-size="8.1">conductivity-claude</text><text x="237" y="316" fill="#1d4d61" font-size="8.1">Add annotated CLAUDE data assimilation example</text><rect x="17" y="308" width="2" height="10" fill="#0e7490" opacity="0.25"/><text x="23" y="333" fill="#5d8ba0" font-size="8.1">20:54</text><text x="69" y="333" fill="#9a6a10" font-size="8.1">shuccii</text><text x="237" y="333" fill="#1d4d61" font-size="8.1">chore: refresh telemetry panels</text><rect x="17" y="325" width="2" height="10" fill="#0e7490" opacity="0.25"/>
    </g>
  </g>
  <rect x="7" y="28" width="886" height="151" fill="url(#lgScan)" opacity="0.2"/>
  <rect x="7" y="28" width="886" height="151" filter="url(#lgGrain)" opacity="0.09"/>
</g>
</svg>
